<svg width="48" height="48" viewBox="0 0 48 48" fill="none" xmlns="http://www.w3.org/2000/svg">
<circle cx="24" cy="24" r="23.5" fill="#252525" stroke="#494949"/>
<path fill-rule="evenodd" clip-rule="evenodd" d="M21.8575 21.474H24.9525V23.0157C25.3983 22.129 26.5417 21.3323 28.2592 21.3323C31.5517 21.3323 32.3333 23.0973 32.3333 26.3357V32.3332H29V27.0732C29 25.229 28.5542 24.189 27.4192 24.189C25.845 24.189 25.1908 25.3098 25.1908 27.0723V32.3332H21.8575V21.474ZM16.1417 32.1915H19.475V21.3323H16.1417V32.1915ZM19.9525 17.7915C19.9526 18.0709 19.8972 18.3475 19.7895 18.6053C19.6818 18.8631 19.5239 19.0969 19.325 19.2932C18.922 19.6937 18.3765 19.9179 17.8083 19.9165C17.2412 19.9161 16.6969 19.6925 16.2933 19.294C16.0952 19.0971 15.9378 18.863 15.8303 18.6052C15.7228 18.3474 15.6672 18.0709 15.6667 17.7915C15.6667 17.2273 15.8917 16.6873 16.2942 16.289C16.6974 15.89 17.2419 15.6663 17.8092 15.6665C18.3775 15.6665 18.9225 15.8907 19.325 16.289C19.7267 16.6873 19.9525 17.2273 19.9525 17.7915Z" fill="#BFBFBF"/>
</svg>
