<svg width="48" height="48" viewBox="0 0 48 48" fill="none" xmlns="http://www.w3.org/2000/svg">
<circle cx="24" cy="24" r="23.5" fill="#252525" stroke="#B09557"/>
<path d="M24 16.6665C25.5913 16.6665 27.1174 17.2986 28.2426 18.4239C29.3679 19.5491 30 21.0752 30 22.6665C30 25.1505 28.1067 27.7532 24.4 30.5332C24.2846 30.6197 24.1442 30.6665 24 30.6665C23.8558 30.6665 23.7154 30.6197 23.6 30.5332C19.8933 27.7532 18 25.1505 18 22.6665C18 21.0752 18.6321 19.5491 19.7574 18.4239C20.8826 17.2986 22.4087 16.6665 24 16.6665ZM24 17.9998C22.7623 17.9998 21.5753 18.4915 20.7002 19.3667C19.825 20.2418 19.3333 21.4288 19.3333 22.6665C19.3333 24.4732 20.7453 26.5572 23.632 28.8705L24 29.1612L24.368 28.8705C27.2547 26.5572 28.6667 24.4732 28.6667 22.6665C28.6667 21.4288 28.175 20.2418 27.2998 19.3667C26.4247 18.4915 25.2377 17.9998 24 17.9998ZM24 21.3332C24.3536 21.3332 24.6928 21.4736 24.9428 21.7237C25.1929 21.9737 25.3333 22.3129 25.3333 22.6665C25.3333 23.0201 25.1929 23.3593 24.9428 23.6093C24.6928 23.8594 24.3536 23.9998 24 23.9998C23.6464 23.9998 23.3072 23.8594 23.0572 23.6093C22.8071 23.3593 22.6667 23.0201 22.6667 22.6665C22.6667 22.3129 22.8071 21.9737 23.0572 21.7237C23.3072 21.4736 23.6464 21.3332 24 21.3332Z" fill="#B09557"/>
</svg>
