<svg width="48" height="48" viewBox="0 0 48 48" fill="none" xmlns="http://www.w3.org/2000/svg">
<circle cx="24" cy="24" r="23.5" fill="#252525" stroke="#B09557"/>
<path d="M19.714 21.2578C19.523 19.9998 20.41 18.8698 21.765 18.4558C22.0055 18.3828 22.2647 18.4039 22.4901 18.515C22.7156 18.626 22.8903 18.8187 22.979 19.0538L23.414 20.2138C23.484 20.4004 23.4967 20.6037 23.4504 20.7976C23.404 20.9914 23.3008 21.167 23.154 21.3018L21.86 22.4868C21.7961 22.5453 21.7486 22.6193 21.7219 22.7017C21.6953 22.7841 21.6905 22.872 21.708 22.9568L21.72 23.0088L21.751 23.1388C21.9123 23.7703 22.1575 24.3774 22.48 24.9438C22.8321 25.5452 23.2686 26.0931 23.776 26.5708L23.816 26.6068C23.8806 26.6642 23.959 26.7038 24.0434 26.7218C24.1279 26.7399 24.2156 26.7357 24.298 26.7098L25.971 26.1828C26.1611 26.1231 26.3648 26.1216 26.5558 26.1784C26.7468 26.2353 26.9164 26.3479 27.043 26.5018L27.835 27.4628C28.165 27.8628 28.125 28.4508 27.746 28.8038C26.709 29.7708 25.283 29.9688 24.291 29.1718C23.0745 28.1915 22.0494 26.9951 21.267 25.6428C20.477 24.2923 19.9507 22.8044 19.714 21.2578ZM22.756 23.0228L23.828 22.0388C24.1218 21.7693 24.3284 21.4182 24.4213 21.0305C24.5141 20.6428 24.4889 20.2361 24.349 19.8628L23.915 18.7028C23.737 18.2296 23.3854 17.8419 22.9319 17.6184C22.4783 17.395 21.9567 17.3526 21.473 17.4998C19.79 18.0148 18.439 19.5238 18.725 21.4088C18.925 22.7248 19.386 24.3988 20.403 26.1468C21.2471 27.6049 22.3529 28.8948 23.665 29.9518C25.153 31.1468 27.139 30.7388 28.429 29.5368C28.7981 29.1931 29.0222 28.7215 29.0554 28.2183C29.0887 27.7151 28.9287 27.2181 28.608 26.8288L27.816 25.8668C27.5626 25.5593 27.2232 25.3345 26.8412 25.2211C26.4592 25.1078 26.0521 25.1112 25.672 25.2308L24.283 25.6678C23.9243 25.2981 23.6102 24.8876 23.347 24.4448C23.093 23.997 22.8949 23.5198 22.757 23.0238" fill="#B09557"/>
</svg>
