<svg width="48" height="48" viewBox="0 0 48 48" fill="none" xmlns="http://www.w3.org/2000/svg">
<circle cx="24" cy="24" r="23.5" fill="#252525" stroke="#494949"/>
<path d="M25.8333 16.396C24.8111 16.396 23.8308 16.8021 23.108 17.5249C22.3852 18.2477 21.9792 19.228 21.9792 20.2502V22.396H19.9167C19.8133 22.396 19.7292 22.4793 19.7292 22.5835V25.4168C19.7292 25.5202 19.8125 25.6043 19.9167 25.6043H21.9792V31.4168C21.9792 31.5202 22.0625 31.6043 22.1667 31.6043H25C25.1033 31.6043 25.1875 31.521 25.1875 31.4168V25.6043H27.2683C27.3542 25.6043 27.4292 25.546 27.45 25.4627L28.1583 22.6293C28.1653 22.6017 28.1659 22.5728 28.16 22.5449C28.1541 22.517 28.142 22.4908 28.1245 22.4683C28.1069 22.4458 28.0845 22.4276 28.0589 22.4151C28.0333 22.4025 28.0052 22.396 27.9767 22.396H25.1875V20.2502C25.1875 20.1654 25.2042 20.0814 25.2367 20.003C25.2691 19.9247 25.3167 19.8535 25.3767 19.7935C25.4366 19.7335 25.5078 19.6859 25.5862 19.6535C25.6645 19.621 25.7485 19.6043 25.8333 19.6043H28C28.1033 19.6043 28.1875 19.521 28.1875 19.4168V16.5835C28.1875 16.4802 28.1042 16.396 28 16.396H25.8333Z" fill="#BFBFBF"/>
</svg>
