<svg width="48" height="48" viewBox="0 0 48 48" fill="none" xmlns="http://www.w3.org/2000/svg">
<circle cx="24" cy="24" r="23.5" fill="#252525" stroke="#494949"/>
<path d="M28.45 18.5498C28.2522 18.5498 28.0589 18.6085 27.8944 18.7184C27.73 18.8282 27.6018 18.9844 27.5261 19.1672C27.4504 19.3499 27.4306 19.5509 27.4692 19.7449C27.5078 19.9389 27.603 20.1171 27.7429 20.2569C27.8828 20.3968 28.0609 20.492 28.2549 20.5306C28.4489 20.5692 28.65 20.5494 28.8327 20.4737C29.0154 20.398 29.1716 20.2699 29.2815 20.1054C29.3914 19.941 29.45 19.7476 29.45 19.5498C29.45 19.2846 29.3446 19.0303 29.1571 18.8427C28.9696 18.6552 28.7152 18.5498 28.45 18.5498ZM32.2833 20.5665C32.2671 19.8751 32.1376 19.191 31.9 18.5415C31.6881 17.9858 31.3583 17.4826 30.9333 17.0665C30.5207 16.6394 30.0163 16.3117 29.4583 16.1082C28.8106 15.8633 28.1257 15.7308 27.4333 15.7165C26.55 15.6665 26.2667 15.6665 24 15.6665C21.7333 15.6665 21.45 15.6665 20.5667 15.7165C19.8743 15.7308 19.1895 15.8633 18.5417 16.1082C17.9847 16.3137 17.4808 16.6411 17.0667 17.0665C16.6395 17.4792 16.3118 17.9835 16.1083 18.5415C15.8635 19.1893 15.731 19.8741 15.7167 20.5665C15.6667 21.4498 15.6667 21.7332 15.6667 23.9998C15.6667 26.2665 15.6667 26.5498 15.7167 27.4332C15.731 28.1255 15.8635 28.8104 16.1083 29.4582C16.3118 30.0161 16.6395 30.5205 17.0667 30.9332C17.4808 31.3585 17.9847 31.686 18.5417 31.8915C19.1895 32.1364 19.8743 32.2688 20.5667 32.2832C21.45 32.3332 21.7333 32.3332 24 32.3332C26.2667 32.3332 26.55 32.3332 27.4333 32.2832C28.1257 32.2688 28.8106 32.1364 29.4583 31.8915C30.0163 31.688 30.5207 31.3603 30.9333 30.9332C31.3602 30.5187 31.6903 30.015 31.9 29.4582C32.1376 28.8087 32.2671 28.1246 32.2833 27.4332C32.2833 26.5498 32.3333 26.2665 32.3333 23.9998C32.3333 21.7332 32.3333 21.4498 32.2833 20.5665ZM30.7833 27.3332C30.7773 27.8621 30.6815 28.3863 30.5 28.8832C30.3669 29.2458 30.1532 29.5735 29.875 29.8415C29.6047 30.1169 29.2777 30.3302 28.9167 30.4665C28.4198 30.648 27.8956 30.7438 27.3667 30.7498C26.5333 30.7915 26.225 30.7998 24.0333 30.7998C21.8417 30.7998 21.5333 30.7998 20.7 30.7498C20.1507 30.7601 19.6038 30.6755 19.0833 30.4998C18.7382 30.3566 18.4261 30.1438 18.1667 29.8748C17.8901 29.6071 17.679 29.2792 17.55 28.9165C17.3466 28.4125 17.2337 27.8765 17.2167 27.3332C17.2167 26.4998 17.1667 26.1915 17.1667 23.9998C17.1667 21.8082 17.1667 21.4998 17.2167 20.6665C17.2204 20.1257 17.3191 19.5898 17.5083 19.0832C17.655 18.7314 17.8802 18.4179 18.1667 18.1665C18.4198 17.88 18.7327 17.6524 19.0833 17.4998C19.5913 17.3165 20.1267 17.2207 20.6667 17.2165C21.5 17.2165 21.8083 17.1665 24 17.1665C26.1917 17.1665 26.5 17.1665 27.3333 17.2165C27.8623 17.2226 28.3864 17.3184 28.8833 17.4998C29.262 17.6404 29.6019 17.8689 29.875 18.1665C30.1481 18.4225 30.3615 18.7354 30.5 19.0832C30.6852 19.5906 30.7811 20.1263 30.7833 20.6665C30.825 21.4998 30.8333 21.8082 30.8333 23.9998C30.8333 26.1915 30.825 26.4998 30.7833 27.3332ZM24 19.7248C23.1548 19.7265 22.3291 19.9786 21.6272 20.4494C20.9253 20.9201 20.3787 21.5883 20.0564 22.3696C19.7341 23.1509 19.6506 24.0102 19.8165 24.8389C19.9824 25.6677 20.3902 26.4286 20.9884 27.0257C21.5866 27.6227 22.3483 28.029 23.1774 28.1933C24.0064 28.3576 24.8656 28.2724 25.6462 27.9486C26.4269 27.6248 27.0941 27.0769 27.5634 26.374C28.0328 25.6712 28.2833 24.845 28.2833 23.9998C28.2844 23.4374 28.1743 22.8803 27.9594 22.3606C27.7444 21.8409 27.4288 21.3688 27.0307 20.9715C26.6327 20.5742 26.16 20.2596 25.6398 20.0456C25.1197 19.8317 24.5624 19.7226 24 19.7248ZM24 26.7748C23.4512 26.7748 22.9146 26.6121 22.4583 26.3072C22.002 26.0022 21.6463 25.5688 21.4362 25.0618C21.2262 24.5547 21.1713 23.9968 21.2783 23.4585C21.3854 22.9202 21.6497 22.4257 22.0378 22.0376C22.4259 21.6495 22.9203 21.3852 23.4586 21.2782C23.9969 21.1711 24.5549 21.226 25.062 21.4361C25.569 21.6461 26.0024 22.0018 26.3073 22.4581C26.6123 22.9145 26.775 23.451 26.775 23.9998C26.775 24.3643 26.7032 24.7251 26.5638 25.0618C26.4243 25.3985 26.2199 25.7044 25.9622 25.9621C25.7045 26.2197 25.3986 26.4241 25.062 26.5636C24.7253 26.7031 24.3644 26.7748 24 26.7748Z" fill="#BFBFBF"/>
</svg>
