<svg width="48" height="48" viewBox="0 0 48 48" fill="none" xmlns="http://www.w3.org/2000/svg">
<circle cx="24" cy="24" r="23.5" fill="#252525" stroke="#B09557"/>
<path d="M27.5 17.8335H20.5C19.6602 17.8335 18.8547 18.1671 18.2608 18.761C17.667 19.3549 17.3333 20.1603 17.3333 21.0002V27.0002C17.3333 27.416 17.4152 27.8278 17.5744 28.212C17.7335 28.5962 17.9668 28.9453 18.2608 29.2393C18.8547 29.8332 19.6602 30.1668 20.5 30.1668H27.5C28.3393 30.1651 29.1437 29.8309 29.7372 29.2374C30.3307 28.6439 30.6649 27.8395 30.6667 27.0002V21.0002C30.6649 20.1609 30.3307 19.3564 29.7372 18.7629C29.1437 18.1695 28.3393 17.8353 27.5 17.8335ZM25.0667 23.3802C24.7387 23.5672 24.3676 23.6656 23.99 23.6656C23.6124 23.6656 23.2413 23.5672 22.9133 23.3802L18.3467 20.7602C18.4057 20.2304 18.658 19.7409 19.0553 19.3855C19.4526 19.03 19.9669 18.8335 20.5 18.8335H27.5C28.0327 18.835 28.5462 19.032 28.9432 19.3872C29.3402 19.7423 29.5929 20.2309 29.6533 20.7602L25.0667 23.3802Z" fill="#B09557"/>
</svg>
