<svg width="40" height="40" viewBox="0 0 40 40" fill="none" xmlns="http://www.w3.org/2000/svg">
<g clip-path="url(#clip0_23_246)">
<path d="M36.4844 22.3048H33.4959L39.8271 7.53205C40.0821 6.93721 39.8065 6.24822 39.2116 5.9933C38.6168 5.73838 37.9278 6.01393 37.6729 6.60877L30.946 22.3048H9.05398L2.32711 6.60877C2.07219 6.01393 1.38336 5.73822 0.788359 5.9933C0.193516 6.24822 -0.0820312 6.93713 0.172891 7.53205L6.50406 22.3048H3.51562C1.57711 22.3048 0 23.8819 0 25.8204V32.8517C0 34.7902 1.57711 36.3673 3.51562 36.3673H4.76562V37.6173C4.76562 38.2645 5.29031 38.7892 5.9375 38.7892C6.58469 38.7892 7.10938 38.2645 7.10938 37.6173V36.3673H32.8906V37.6173C32.8906 38.2645 33.4153 38.7892 34.0625 38.7892C34.7097 38.7892 35.2344 38.2645 35.2344 37.6173V36.3673H36.4844C38.4229 36.3673 40 34.7902 40 32.8517V25.8204C40 23.8819 38.4229 22.3048 36.4844 22.3048ZM37.6562 32.8517C37.6562 33.4978 37.1305 34.0235 36.4844 34.0235H3.51562C2.86945 34.0235 2.34375 33.4978 2.34375 32.8517V25.8204C2.34375 25.1742 2.86945 24.6485 3.51562 24.6485H36.4844C37.1305 24.6485 37.6562 25.1742 37.6562 25.8204V32.8517Z" fill="#B09557"/>
<path d="M17.5188 16.3045C17.0612 16.7621 17.0612 17.5041 17.5188 17.9617C17.9764 18.4194 18.7184 18.4194 19.1761 17.9617C19.3048 17.833 19.583 17.6172 20 17.6172C20.417 17.6172 20.6952 17.833 20.8239 17.9617C21.2815 18.4194 22.0235 18.4195 22.4812 17.9617C22.9388 17.5041 22.9388 16.7621 22.4812 16.3045C22.0961 15.9195 21.2617 15.2734 20 15.2734C18.7383 15.2734 17.9039 15.9195 17.5188 16.3045Z" fill="#B09557"/>
<path d="M9.22688 8.02227C12.1058 5.14133 15.9317 3.55469 20 3.55469C24.0683 3.55469 27.8942 5.14133 30.7731 8.02227C31.2303 8.47992 31.9723 8.48055 32.4304 8.02289C32.8882 7.56547 32.8884 6.82344 32.431 6.36563C29.1095 3.04156 24.6947 1.21094 20 1.21094C15.3053 1.21094 10.8906 3.04156 7.56906 6.36555C7.11156 6.82336 7.1118 7.56531 7.56969 8.02281C8.02742 8.48031 8.76953 8.48 9.22688 8.02227Z" fill="#B09557"/>
<path d="M29.1137 11.336C29.5716 10.8787 29.5719 10.1366 29.1146 9.67875C26.6793 7.24102 23.4424 5.89844 20 5.89844C16.5576 5.89844 13.3206 7.24102 10.8854 9.67875C10.428 10.1366 10.4284 10.8786 10.8862 11.336C11.3441 11.7934 12.0862 11.793 12.5435 11.3352C14.5359 9.34062 17.1841 8.24219 19.9999 8.24219C22.8158 8.24219 25.4638 9.34062 27.4563 11.3352C27.9136 11.7928 28.6555 11.7937 29.1137 11.336Z" fill="#B09557"/>
<path d="M25.7983 14.6481C26.2559 14.1905 26.2559 13.4485 25.7983 12.9909C24.2474 11.44 22.1882 10.5859 20 10.5859C17.8118 10.5859 15.7526 11.44 14.2018 12.9909C13.7441 13.4485 13.7441 14.1905 14.2018 14.6481C14.6594 15.1058 15.4014 15.1059 15.8591 14.6481C16.9672 13.54 18.4378 12.9297 20 12.9297C21.5622 12.9297 23.0328 13.54 24.141 14.6481C24.5986 15.1058 25.3406 15.1058 25.7983 14.6481Z" fill="#B09557"/>
<path d="M24.6875 26.9922C24.0403 26.9922 23.5156 27.5169 23.5156 28.1641V30.5078C23.5156 31.155 24.0403 31.6797 24.6875 31.6797C25.3347 31.6797 25.8594 31.155 25.8594 30.5078V28.1641C25.8594 27.5169 25.3347 26.9922 24.6875 26.9922Z" fill="#B09557"/>
<path d="M29.375 26.9922C28.7278 26.9922 28.2031 27.5169 28.2031 28.1641V30.5078C28.2031 31.155 28.7278 31.6797 29.375 31.6797C30.0222 31.6797 30.5469 31.155 30.5469 30.5078V28.1641C30.5469 27.5169 30.0222 26.9922 29.375 26.9922Z" fill="#B09557"/>
<path d="M34.0625 26.9922C33.4153 26.9922 32.8906 27.5169 32.8906 28.1641V30.5078C32.8906 31.155 33.4153 31.6797 34.0625 31.6797C34.7097 31.6797 35.2344 31.155 35.2344 30.5078V28.1641C35.2344 27.5169 34.7097 26.9922 34.0625 26.9922Z" fill="#B09557"/>
</g>
<defs>
<clipPath id="clip0_23_246">
<rect width="40" height="40" fill="white"/>
</clipPath>
</defs>
</svg>
