<svg width="40" height="40" viewBox="0 0 40 40" fill="none" xmlns="http://www.w3.org/2000/svg">
<g clip-path="url(#clip0_23_277)">
<path d="M39.3283 33.5578C38.6194 33.0659 37.6458 33.2416 37.1538 33.9505C35.1737 36.8028 29.4105 36.8044 27.4294 33.9505C27.1374 33.5298 26.6579 33.2789 26.1458 33.2789C25.6337 33.2789 25.1542 33.5298 24.8622 33.9504C22.8822 36.8028 17.1189 36.8044 15.1378 33.9504C14.8457 33.5298 14.3663 33.2789 13.8542 33.2789C13.3421 33.2789 12.8625 33.5299 12.5706 33.9505C10.5905 36.803 4.82734 36.8044 2.84618 33.9505C2.35407 33.2415 1.38041 33.0659 0.671663 33.5578C-0.0372394 34.0499 -0.21302 35.0234 0.279087 35.7323C3.14766 39.8647 10.0825 40.3121 13.8542 37.1347C17.1709 39.9288 22.8679 39.8961 26.1457 37.1347C29.9163 40.3113 36.8547 39.861 39.7207 35.7323C40.2128 35.0234 40.0371 34.0499 39.3283 33.5578Z" fill="#B09557"/>
<path d="M7.65636 24.6858C8.51933 24.6858 9.21885 23.9863 9.21885 23.1234V20.7798H23.2812V23.1234C23.2812 23.9863 23.9807 24.6858 24.8437 24.6858C25.7066 24.6858 26.4062 23.9863 26.4062 23.1234V6.09341C26.4062 4.88732 27.3874 3.90608 28.5937 3.90608C29.7998 3.90608 30.7811 4.88732 30.7811 6.09341C30.7811 6.95629 31.4807 7.65582 32.3436 7.65582C33.2066 7.65582 33.9061 6.95629 33.9061 6.09341C33.9061 3.16428 31.5229 0.78125 28.5937 0.78125C25.6645 0.78125 23.2813 3.16428 23.2813 6.09341V10.6243H9.21885V6.09341C9.21885 4.88732 10.2001 3.90608 11.4063 3.90608C12.6126 3.90608 13.5938 4.88732 13.5938 6.09341C13.5938 6.95629 14.2934 7.65582 15.1563 7.65582C16.0193 7.65582 16.7188 6.95629 16.7188 6.09341C16.7187 3.16428 14.3356 0.78125 11.4063 0.78125C8.47706 0.78125 6.09387 3.16428 6.09387 6.09341V23.1235C6.09387 23.9863 6.7934 24.6858 7.65636 24.6858ZM9.21885 13.7491H23.2812V17.6551H9.21885V13.7491Z" fill="#B09557"/>
<path d="M13.8544 30.1039C15.4274 31.4291 17.6091 32.1853 20.0001 32.1853C22.3911 32.1853 24.5728 31.4291 26.1459 30.1039C29.9165 33.2805 36.8549 32.8302 39.7209 28.7015C40.213 27.9926 40.0372 27.0191 39.3283 26.5271C38.6194 26.0351 37.6458 26.2108 37.1538 26.9197C35.1737 29.772 29.4105 29.7737 27.4294 26.9197C27.1374 26.499 26.6579 26.2482 26.1458 26.2482C25.6337 26.2482 25.1542 26.499 24.8622 26.9196C22.8822 29.772 17.1189 29.7737 15.1378 26.9196C14.8457 26.499 14.3663 26.2482 13.8542 26.2482C13.3421 26.2482 12.8625 26.4991 12.5706 26.9197C10.5905 29.7722 4.82734 29.7737 2.84618 26.9197C2.35407 26.2107 1.38041 26.0351 0.671663 26.5271C-0.0372394 27.0192 -0.21302 27.9926 0.279087 28.7015C3.14766 32.834 10.0825 33.2813 13.8544 30.1039Z" fill="#B09557"/>
</g>
<defs>
<clipPath id="clip0_23_277">
<rect width="40" height="40" fill="white"/>
</clipPath>
</defs>
</svg>
