<svg width="40" height="40" viewBox="0 0 40 40" fill="none" xmlns="http://www.w3.org/2000/svg">
<g clip-path="url(#clip0_23_260)">
<path d="M18.1359 18.5784C17.523 18.5784 16.9357 19.1174 16.9641 19.7502C16.9925 20.3852 17.479 20.9221 18.1359 20.9221C18.7489 20.9221 19.3362 20.3831 19.3078 19.7502C19.2794 19.1153 18.7929 18.5784 18.1359 18.5784Z" fill="#B09557"/>
<path d="M34.332 24.2252V8.9337C34.332 5.17331 31.2728 2.11401 27.5124 2.11401C23.8357 2.11401 20.8297 5.03886 20.6978 8.68401C20.3026 8.65792 19.9013 8.6569 19.4955 8.68323C17.0559 8.84175 14.8241 9.94081 13.2111 11.7778C11.5981 13.615 10.7971 15.9703 10.9555 18.41C11.0025 19.1321 11.1325 19.836 11.339 20.511L6.26789 25.5821C6.07859 25.7714 5.95984 26.0198 5.93125 26.2859L5.70984 28.3521L3.39047 28.7597C3.15336 28.8014 2.93492 28.915 2.76469 29.0853L0.343281 31.5068C0.123438 31.7267 0 32.0246 0 32.3355V36.7144C0 37.3616 0.524687 37.8863 1.17188 37.8863H5.55078C5.86164 37.8863 6.15969 37.7628 6.37937 37.543L17.3636 26.5587C18.2336 26.8296 19.1458 26.9697 20.0759 26.9697C20.2771 26.9697 20.4795 26.9632 20.6823 26.95C23.1219 26.7915 25.3538 25.6924 26.9667 23.8553C28.5797 22.0182 29.3808 19.6629 29.2223 17.2232C28.9756 13.4247 26.4325 10.3124 23.0365 9.15214V8.9337C23.0365 6.46565 25.0444 4.45776 27.5124 4.45776C29.9805 4.45776 31.9883 6.46565 31.9883 8.9337V24.2252C28.7732 24.7826 26.3203 27.5921 26.3203 30.9642C26.3203 34.7357 29.3886 37.804 33.1602 37.804C36.9317 37.804 40 34.7357 40 30.9642C40 27.5921 37.5472 24.7826 34.332 24.2252ZM5.06539 35.5424H2.34375V32.8208L4.16047 31.004L6.98398 30.5077C7.49828 30.4173 7.89062 29.9976 7.94633 29.4784L8.21766 26.9469L12.3908 22.7738C12.8463 23.4789 13.4021 24.1253 14.0502 24.6943C14.3869 24.9899 14.7412 25.2577 15.1099 25.4978L5.06539 35.5424ZM26.8834 17.3752C27.0014 19.19 26.4055 20.9422 25.2055 22.3089C24.0055 23.6757 22.3452 24.4932 20.5302 24.6111C18.7151 24.7295 16.9631 24.1331 15.5965 22.9332C14.2298 21.7332 13.4122 20.0728 13.2943 18.2578C13.1763 16.443 13.7723 14.6908 14.9723 13.3242C16.1722 11.9575 17.8326 11.1399 19.6475 11.022C19.797 11.0122 19.9456 11.0075 20.0934 11.0075C20.2952 11.0075 20.4949 11.0175 20.6927 11.035V13.931C20.473 13.9746 20.2633 14.0813 20.093 14.2516C19.6353 14.7092 19.6353 15.4512 20.093 15.9089L21.979 17.7949C22.2078 18.0237 22.5077 18.1382 22.8076 18.1382C23.1074 18.1382 23.4074 18.0237 23.6362 17.7949C24.0938 17.3373 24.0938 16.5953 23.6362 16.1376L23.0364 15.5378V11.6821C25.1771 12.7152 26.7188 14.839 26.8834 17.3752ZM33.1602 35.4603C30.681 35.4603 28.6641 33.4434 28.6641 30.9642C28.6641 28.4849 30.6809 26.4681 33.1602 26.4681C35.6394 26.4681 37.6562 28.4849 37.6562 30.9642C37.6562 33.4434 35.6394 35.4603 33.1602 35.4603Z" fill="#B09557"/>
</g>
<defs>
<clipPath id="clip0_23_260">
<rect width="40" height="40" fill="white"/>
</clipPath>
</defs>
</svg>
