<svg width="40" height="40" viewBox="0 0 40 40" fill="none" xmlns="http://www.w3.org/2000/svg">
<g clip-path="url(#clip0_23_268)">
<path d="M34.9423 26.6163C35.3628 26.7827 35.8203 26.8751 36.2993 26.8751C38.3399 26.8751 40.0001 25.215 40.0001 23.1743V19.7869C40.0001 17.7463 38.3399 16.0861 36.2993 16.0861C35.8203 16.0861 35.3628 16.1786 34.9423 16.345V11.2161H15.8916V18.86C14.262 18.982 12.6446 19.3584 11.0908 19.9898C10.1334 20.379 9.37984 21.1155 8.96898 22.0639C8.78375 22.4915 8.67836 22.9405 8.65164 23.3931C8.25109 23.52 7.85508 23.6622 7.46758 23.8197C6.51016 24.2088 5.75664 24.9454 5.34578 25.8937C5.16055 26.3213 5.05516 26.7704 5.02844 27.2229C4.62789 27.3498 4.23195 27.492 3.84438 27.6495C2.88695 28.0386 2.13336 28.7752 1.7225 29.7236C1.47133 30.3035 1.36625 30.9227 1.4068 31.5368H0V34.1118C0 36.569 1.99906 38.5681 4.45633 38.5681H30.7C33.1572 38.5681 35.1563 36.569 35.1563 34.1118V31.5368H33.7388C34.5186 30.2925 34.9423 28.8431 34.9423 27.3224V26.6163H34.9423ZM24.9652 25.6925C25.2391 25.784 25.5105 25.8828 25.777 25.9911C26.5678 26.3125 26.9619 27.2222 26.6555 28.019L25.3024 31.537H22.7173L24.9652 25.6925ZM28.5884 29.5223C28.8623 29.6137 29.1338 29.7125 29.4002 29.8208C30.0893 30.1008 30.4766 30.8275 30.3624 31.5369H27.8135L28.5884 29.5223ZM36.2992 18.43C37.0475 18.43 37.6562 19.0387 37.6562 19.787V23.1744C37.6562 23.9227 37.0475 24.5315 36.2992 24.5315C35.5509 24.5315 34.9422 23.9227 34.9422 23.1744V19.787C34.9423 19.0387 35.551 18.43 36.2992 18.43ZM32.5985 13.56V27.3225C32.5985 28.0309 32.4681 28.7175 32.2211 29.355C31.788 28.5847 31.112 27.9867 30.2827 27.6497C29.8952 27.4922 29.4992 27.35 29.0987 27.2231C29.072 26.7705 28.9666 26.3215 28.7813 25.8939C28.3705 24.9455 27.617 24.209 26.6595 23.8198C26.272 23.6623 25.876 23.5201 25.4755 23.3933C25.4487 22.9407 25.3434 22.4917 25.1581 22.064C24.7473 21.1157 23.9938 20.3791 23.0363 19.99C21.4825 19.3585 19.8651 18.9822 18.2354 18.8601V13.5599L32.5985 13.56ZM11.9732 22.1612C15.2558 20.8272 18.8713 20.8272 22.1537 22.1612C22.9446 22.4826 23.3387 23.3924 23.0323 24.1892L20.2062 31.5369H13.9207L11.0946 24.1892C10.7883 23.3924 11.1823 22.4826 11.9732 22.1612ZM8.35 25.9911C8.61641 25.8828 8.88781 25.784 9.1618 25.6925L11.4096 31.5369H8.82445L7.47141 28.019C7.165 27.2222 7.55914 26.3125 8.35 25.9911ZM4.72672 29.8208C4.99312 29.7125 5.26453 29.6137 5.53852 29.5223L6.31336 31.5369H3.76445C3.65023 30.8275 4.03766 30.1009 4.72672 29.8208ZM32.8125 34.1118C32.8125 35.2767 31.8648 36.2244 30.6999 36.2244H4.45633C3.29148 36.2244 2.34375 35.2768 2.34375 34.1118V33.8807H32.8125V34.1118Z" fill="#B09557"/>
<path d="M20.9063 8.87242H23.2501C23.2501 8.23359 23.3918 7.96594 23.6064 7.56086C23.8865 7.03187 24.2353 6.37352 24.2353 5.15227C24.2353 3.93102 23.8866 3.27258 23.6065 2.74352C23.3919 2.33828 23.2501 2.07063 23.2501 1.43164H20.9064C20.9064 2.65297 21.2551 3.31141 21.5352 3.84039C21.7498 4.24563 21.8915 4.5132 21.8915 5.15227C21.8915 5.79109 21.7498 6.05875 21.5352 6.46383C21.255 6.99289 20.9063 7.65125 20.9063 8.87242Z" fill="#B09557"/>
<path d="M26.5986 8.87234H28.9423C28.9423 8.23352 29.084 7.96586 29.2987 7.56078C29.5788 7.0318 29.9275 6.37344 29.9275 5.15227C29.9275 3.93102 29.5788 3.27258 29.2987 2.74352C29.084 2.33836 28.9423 2.0707 28.9423 1.43164H26.5986C26.5986 2.65297 26.9472 3.31133 27.2274 3.84039C27.442 4.24555 27.5837 4.5132 27.5837 5.15227C27.5837 5.79109 27.442 6.05875 27.2274 6.46383C26.9472 6.99281 26.5986 7.65117 26.5986 8.87234Z" fill="#B09557"/>
</g>
<defs>
<clipPath id="clip0_23_268">
<rect width="40" height="40" fill="white"/>
</clipPath>
</defs>
</svg>
