<svg width="40" height="40" viewBox="0 0 40 40" fill="none" xmlns="http://www.w3.org/2000/svg">
<mask id="mask0_23_289" style="mask-type:luminance" maskUnits="userSpaceOnUse" x="0" y="0" width="40" height="40">
<path d="M0 0H40V40H0V0Z" fill="white"/>
</mask>
<g mask="url(#mask0_23_289)">
<path d="M35 18.3333H29.7167L33.95 14.0999C34.6 13.4499 34.6 12.3999 33.95 11.7499C33.3 11.0999 32.2334 11.0999 31.5834 11.7499L25 18.3333H21.6667V14.9999L28.25 8.41659C28.9 7.76659 28.9 6.69992 28.25 6.04992C27.6 5.39992 26.55 5.39992 25.9 6.04992L21.6667 10.2833V4.99992C21.6667 4.08325 20.9167 3.33325 20 3.33325C19.0834 3.33325 18.3334 4.08325 18.3334 4.99992V10.2833L14.1 6.04992C13.45 5.39992 12.4 5.39992 11.75 6.04992C11.1 6.69992 11.1 7.76659 11.75 8.41659L18.3334 14.9999V18.3333H15L8.41671 11.7499C7.76671 11.0999 6.70004 11.0999 6.05004 11.7499C5.40004 12.3999 5.40004 13.4499 6.05004 14.0999L10.2834 18.3333H5.00004C4.08337 18.3333 3.33337 19.0833 3.33337 19.9999C3.33337 20.9166 4.08337 21.6666 5.00004 21.6666H10.2834L6.05004 25.8999C5.40004 26.5499 5.40004 27.5999 6.05004 28.2499C6.70004 28.8999 7.76671 28.8999 8.41671 28.2499L15 21.6666H18.3334V24.9999L11.75 31.5833C11.1 32.2333 11.1 33.2999 11.75 33.9499C12.4 34.5999 13.45 34.5999 14.1 33.9499L18.3334 29.7166V34.9999C18.3334 35.9166 19.0834 36.6666 20 36.6666C20.9167 36.6666 21.6667 35.9166 21.6667 34.9999V29.7166L25.9 33.9499C26.55 34.5999 27.6 34.5999 28.25 33.9499C28.9 33.2999 28.9 32.2333 28.25 31.5833L21.6667 24.9999V21.6666H25L31.5834 28.2499C32.2334 28.8999 33.3 28.8999 33.95 28.2499C34.6 27.5999 34.6 26.5499 33.95 25.8999L29.7167 21.6666H35C35.9167 21.6666 36.6667 20.9166 36.6667 19.9999C36.6667 19.0833 35.9167 18.3333 35 18.3333Z" fill="#B09557"/>
</g>
</svg>
