<svg width="40" height="40" viewBox="0 0 40 40" fill="none" xmlns="http://www.w3.org/2000/svg">
<path d="M35.4512 17.9455V6.82365C35.4512 4.56209 33.6113 2.72217 31.3498 2.72217H8.65008C6.38852 2.72217 4.54875 4.56209 4.54875 6.82365V17.9455C1.94281 18.5724 0 20.9214 0 23.7169V32.0125C0 32.6706 0.533516 33.2041 1.19164 33.2041H4.54867V36.0862C4.54867 36.7444 5.08219 37.2779 5.74031 37.2779C6.39844 37.2779 6.93195 36.7444 6.93195 36.0862V33.2041H33.0679V36.0862C33.0679 36.7444 33.6014 37.2779 34.2595 37.2779C34.9177 37.2779 35.4512 36.7444 35.4512 36.0862V33.2041H38.8082C39.4663 33.2041 39.9998 32.6706 39.9998 32.0125V23.7169C40 20.9214 38.0572 18.5724 35.4512 17.9455ZM6.93203 6.82365C6.93203 5.87631 7.70281 5.10553 8.65008 5.10553H31.3498C32.2972 5.10553 33.068 5.87631 33.068 6.82365V17.7801H29.1301V15.9001C29.1301 12.7852 26.5959 10.2512 23.4812 10.2512H16.519C13.4041 10.2512 10.8701 12.7853 10.8701 15.9001V17.78H6.93203V6.82365ZM26.7468 15.9001V17.78H13.2532V15.9001C13.2532 14.0994 14.7181 12.6344 16.5188 12.6344H23.4811C25.2817 12.6344 26.7468 14.0994 26.7468 15.9001ZM2.38328 30.8208V23.7169C2.38328 21.7575 3.97742 20.1633 5.93687 20.1633H34.063C36.0224 20.1633 37.6166 21.7575 37.6166 23.7169V30.8208H2.38328Z" fill="#B09557"/>
</svg>
