<svg width="106" height="25" viewBox="0 0 106 25" fill="none" xmlns="http://www.w3.org/2000/svg">
<g clip-path="url(#clip0_23_388)">
<path fill-rule="evenodd" clip-rule="evenodd" d="M6.28147 1.5625V25H0V1.5625H6.28147Z" fill="white"/>
<path fill-rule="evenodd" clip-rule="evenodd" d="M9.42221 1.5625H22.7704C27.1068 1.5625 30.6222 5.06027 30.6222 9.375C30.6222 13.6897 27.1068 17.1875 22.7704 17.1875H15.7037V25H9.42221V1.5625ZM15.7037 10.9375H22.7704C23.6377 10.9375 24.3407 10.2379 24.3407 9.375C24.3407 8.51206 23.6377 7.8125 22.7704 7.8125H15.7037V10.9375Z" fill="white"/>
<path fill-rule="evenodd" clip-rule="evenodd" d="M54.1778 1.5625V13.6719C54.1778 16.4764 56.4627 18.75 59.2815 18.75C62.1002 18.75 64.3853 16.4764 64.3853 13.6719V1.5625H70.6669V13.6719C70.6669 19.9282 65.5695 25 59.2815 25C52.9936 25 47.8963 19.9282 47.8963 13.6719V1.5625H54.1778Z" fill="white"/>
<path fill-rule="evenodd" clip-rule="evenodd" d="M32.9778 12.5C32.9778 6.45937 37.8993 1.5625 43.9704 1.5625H45.5407V7.8125H43.9704C41.3685 7.8125 39.2593 9.91119 39.2593 12.5V13.2812C39.2593 19.7533 33.9862 25 27.4815 25H26.6963V18.75H27.4815C30.517 18.75 32.9778 16.3016 32.9778 13.2812V12.5Z" fill="white"/>
<path d="M106 2.34375C106 3.63817 104.946 4.6875 103.644 4.6875C102.343 4.6875 101.289 3.63817 101.289 2.34375C101.289 1.04933 102.343 0 103.644 0C104.946 0 106 1.04933 106 2.34375Z" fill="white"/>
<path d="M77.4114 24.9998L80.4088 12.5111L82.6374 20.0244C83.9658 24.5055 90.3453 24.5055 91.6743 20.0244L93.9022 12.5111L96.8997 24.9998H103.358L98.6446 5.36199C97.5238 0.691956 90.9097 0.519044 89.5437 5.12412L87.1558 13.1769L84.7674 5.12413C83.4019 0.519071 76.7873 0.691931 75.6664 5.36198L70.9535 24.9998H77.4114Z" fill="white"/>
</g>
<defs>
<clipPath id="clip0_23_388">
<rect width="106" height="25" fill="white"/>
</clipPath>
</defs>
</svg>
