<svg width="137" height="33" viewBox="0 0 137 33" fill="none" xmlns="http://www.w3.org/2000/svg">
<g clip-path="url(#clip0_23_1207)">
<path fill-rule="evenodd" clip-rule="evenodd" d="M8.11851 2.02663V32.426H0V2.02663H8.11851Z" fill="#738B69"/>
<path fill-rule="evenodd" clip-rule="evenodd" d="M12.1777 2.02663H29.4296C35.0343 2.02663 39.5777 6.56339 39.5777 12.1598C39.5777 17.7562 35.0343 22.2929 29.4296 22.2929H20.2962V32.426H12.1777V2.02663ZM20.2962 14.1864H29.4296C30.5506 14.1864 31.4592 13.279 31.4592 12.1598C31.4592 11.0405 30.5506 10.1331 29.4296 10.1331H20.2962V14.1864Z" fill="#738B69"/>
<path fill-rule="evenodd" clip-rule="evenodd" d="M70.0223 2.02663V17.733C70.0223 21.3706 72.9755 24.3195 76.6186 24.3195C80.2616 24.3195 83.215 21.3706 83.215 17.733V2.02663H91.3337V17.733C91.3337 25.8478 84.7455 32.426 76.6186 32.426C68.4918 32.426 61.9038 25.8478 61.9038 17.733V2.02663H70.0223Z" fill="#738B69"/>
<path fill-rule="evenodd" clip-rule="evenodd" d="M42.6224 16.213C42.6224 8.37808 48.9833 2.02663 56.8298 2.02663H58.8594V10.1331H56.8298C53.467 10.1331 50.7409 12.8552 50.7409 16.213V17.2263C50.7409 25.6209 43.9257 32.426 35.5187 32.426H34.5039V24.3195H35.5187C39.442 24.3195 42.6224 21.1438 42.6224 17.2263V16.213Z" fill="#738B69"/>
<path d="M137 3.03994C137 4.71886 135.637 6.07988 133.955 6.07988C132.274 6.07988 130.911 4.71886 130.911 3.03994C130.911 1.36103 132.274 0 133.955 0C135.637 0 137 1.36103 137 3.03994Z" fill="#738B69"/>
<path d="M100.051 32.426L103.925 16.2277L106.805 25.9727C108.522 31.7849 116.767 31.7849 118.485 25.9727L121.364 16.2277L125.238 32.426H133.585L127.494 6.95497C126.045 0.897743 117.497 0.67347 115.731 6.64645L112.645 17.0912L109.558 6.64646C107.793 0.673505 99.244 0.897711 97.7953 6.95496L91.7041 32.426H100.051Z" fill="#738B69"/>
</g>
<defs>
<clipPath id="clip0_23_1207">
<rect width="137" height="32.426" fill="white"/>
</clipPath>
</defs>
</svg>
