<svg width="40" height="40" viewBox="0 0 40 40" fill="none" xmlns="http://www.w3.org/2000/svg">
<g clip-path="url(#clip0_23_1068)">
<path d="M38.7012 32.7169C38.3237 32.5078 37.8484 32.6441 37.6391 33.0216C36.5091 35.0612 34.3603 36.3281 32.0312 36.3281H25.7876C26.2244 36.0276 26.6366 35.6865 27.0171 35.3059C29.0161 33.3069 29.9399 30.4437 29.4883 27.6467C29.4346 27.3143 29.174 27.0536 28.8416 27C26.869 26.6814 24.8637 27.048 23.1513 27.9926C22.6365 26.222 21.5816 24.6667 20.1053 23.5156H32.0312C34.415 23.5156 36.5874 24.8264 37.701 26.9366C37.841 27.2019 38.1121 27.3534 38.3927 27.3534C38.5155 27.3534 38.6403 27.3243 38.7566 27.2629C39.1382 27.0616 39.2843 26.589 39.0829 26.2073C38.03 24.2121 36.2153 22.7925 34.1028 22.2262C35.4115 21.1654 36.25 19.5463 36.25 17.7344C36.25 14.5466 33.6566 11.9531 30.4688 11.9531H29.0439C29.7359 11.1573 30.1562 10.1193 30.1562 8.98438C30.1562 6.48586 28.1235 4.45312 25.625 4.45312H21.6675C19.169 4.45312 17.1362 6.48586 17.1362 8.98438C17.1362 10.1193 17.5566 11.1573 18.2486 11.9531H17.0749C15.6055 11.9531 14.2164 12.5031 13.1552 13.4845L11.4059 11.2847C11.2577 11.0984 11.033 10.9899 10.7951 10.9897C10.7948 10.9897 10.7946 10.9897 10.7944 10.9897C10.5568 10.9897 10.332 11.0978 10.1838 11.2836L7.64891 14.4712C6.48461 15.9353 6.49563 17.9823 7.61312 19.4273H6.18961C6.06437 19.4273 5.94094 19.4574 5.82984 19.5151C2.23383 21.3806 0 25.054 0 29.1016C0 30.8273 0.395312 32.4765 1.17492 34.0034C1.91812 35.4591 3.0032 36.7491 4.31297 37.7337C4.44828 37.8356 4.61312 37.8906 4.7825 37.8906H32.0312C34.928 37.8906 37.6006 36.3151 39.0059 33.7789C39.215 33.4015 39.0786 32.926 38.7012 32.7169ZM16.4724 30.576C17.9804 32.0839 18.7448 34.1899 18.5755 36.3041C16.462 36.473 14.3553 35.709 12.8474 34.201C11.3395 32.693 10.575 30.587 10.7444 28.4729C12.858 28.3036 14.9645 29.068 16.4724 30.576ZM28.0153 28.4729C28.1846 30.5872 27.4202 32.6931 25.9122 34.201C24.4043 35.7089 22.2992 36.4737 20.1841 36.3041C20.0148 34.1898 20.7793 32.0838 22.2872 30.576C23.7951 29.068 25.9005 28.3039 28.0153 28.4729ZM21.7763 28.9296C21.5711 29.1002 21.3727 29.2808 21.1823 29.4712C20.4189 30.2346 19.8129 31.1243 19.3798 32.088C18.9468 31.1243 18.3408 30.2346 17.5773 29.4712C17.3863 29.2802 17.1873 29.0991 16.9813 28.928C17.3193 27.3645 18.1555 25.9741 19.3789 24.9376C20.6032 25.9748 21.4387 27.3655 21.7763 28.9296ZM18.6987 8.98438C18.6987 7.34742 20.0305 6.01562 21.6675 6.01562H25.625C27.262 6.01562 28.5938 7.34742 28.5938 8.98438C28.5938 10.6213 27.262 11.9531 25.625 11.9531H21.6675C20.0305 11.9531 18.6987 10.6213 18.6987 8.98438ZM30.4688 13.5156C32.7949 13.5156 34.6875 15.4082 34.6875 17.7344C34.6875 20.0605 32.7949 21.9531 30.4688 21.9531H18.8813C18.0023 20.9591 16.9455 20.1306 15.7588 19.5149C15.6476 19.4573 15.5241 19.4271 15.399 19.4271H13.9756C15.0309 18.0625 15.0986 16.1616 14.1223 14.7212C14.9077 13.9499 15.9595 13.5156 17.0749 13.5156H30.4688ZM8.8718 15.4436L10.7943 13.026L12.7167 15.4436C13.4945 16.4216 13.4148 17.8255 12.531 18.7091C12.2533 18.9869 11.9249 19.1835 11.5755 19.3001V16.8633C11.5755 16.4319 11.2257 16.082 10.7943 16.082C10.3629 16.082 10.013 16.4319 10.013 16.8633V19.3001C9.66359 19.1834 9.33516 18.9868 9.0575 18.7091C8.17375 17.8255 8.09398 16.4216 8.8718 15.4436ZM1.5625 29.1016C1.5625 25.702 3.405 22.6111 6.38422 20.9896H15.2042C16.448 21.6672 17.5181 22.6206 18.3348 23.7749C17.0255 24.8952 16.0845 26.3513 15.607 27.9919C13.8951 27.0477 11.8903 26.6814 9.91813 27C9.5857 27.0538 9.32508 27.3142 9.27141 27.6466C8.81969 30.4436 9.74344 33.3069 11.7425 35.3059C12.123 35.6865 12.5352 36.0276 12.972 36.3281H5.04914C2.82977 34.5645 1.5625 31.9453 1.5625 29.1016Z" fill="#738B69"/>
<path d="M6.40059 8.58813C6.09551 8.8932 6.09551 9.38789 6.40059 9.69305C6.55316 9.84555 6.75301 9.92188 6.95301 9.92188C7.15301 9.92188 7.35285 9.84555 7.50543 9.69305C8.6716 8.5268 8.6716 6.62937 7.50543 5.46313C6.94848 4.90617 6.94848 3.99992 7.50543 3.44305C7.81051 3.13797 7.81051 2.64328 7.50543 2.33812C7.20027 2.03312 6.70574 2.03312 6.40051 2.33812C5.23434 3.50437 5.23434 5.4018 6.40051 6.56805C6.95754 7.125 6.95754 8.03125 6.40059 8.58813Z" fill="#738B69"/>
<path d="M2.23256 11.7132C1.92748 12.0183 1.92748 12.513 2.23256 12.8181C2.38514 12.9706 2.58506 13.047 2.78498 13.047C2.9849 13.047 3.18482 12.9706 3.3374 12.8181C4.50357 11.6519 4.50357 9.75445 3.3374 8.58828C2.78045 8.03125 2.78045 7.12508 3.3374 6.56805C3.64248 6.26297 3.64248 5.76836 3.33732 5.4632C3.03232 5.15805 2.53756 5.15812 2.23248 5.46328C1.06639 6.62945 1.06639 8.52687 2.23248 9.69312C2.78951 10.2501 2.78951 11.1563 2.23256 11.7132Z" fill="#738B69"/>
<path d="M39.771 29.4477C39.6258 29.3023 39.4242 29.2188 39.2188 29.2188C39.0133 29.2188 38.8117 29.3023 38.6664 29.4477C38.5211 29.593 38.4375 29.7946 38.4375 30.0001C38.4375 30.2055 38.521 30.4071 38.6664 30.5523C38.8117 30.6977 39.0133 30.7813 39.2188 30.7813C39.4242 30.7813 39.6258 30.6977 39.771 30.5523C39.9164 30.4071 40 30.2055 40 30.0001C40 29.7946 39.9164 29.593 39.771 29.4477Z" fill="#738B69"/>
</g>
<defs>
<clipPath id="clip0_23_1068">
<rect width="40" height="40" fill="white"/>
</clipPath>
</defs>
</svg>
