<svg width="28" height="28" viewBox="0 0 28 28" fill="none" xmlns="http://www.w3.org/2000/svg">
<path d="M27.533 22.1665H27.0145C28.3036 20.9121 28.3316 18.8501 27.0772 17.5611C26.8781 17.3566 26.6531 17.1791 26.4079 17.0332C27.3937 16.4445 27.998 15.3815 27.9996 14.2333C27.9973 12.4302 26.5361 10.969 24.733 10.9666H20.5331V7.70002C20.533 7.44231 20.324 7.23342 20.0662 7.23353C20.0426 7.23353 20.0189 7.23534 19.9955 7.23896L14.4665 8.08921V7.65335C15.5521 7.43011 16.3317 6.47509 16.3331 5.36672C16.3331 3.33021 14.4119 1.38517 14.3298 1.3035C14.1475 1.12133 13.8521 1.12133 13.6699 1.3035C13.5878 1.38517 11.6665 3.33021 11.6665 5.36672C11.6679 6.47509 12.4475 7.43011 13.5332 7.65335V8.23341L7.8623 9.10607C7.63486 9.14107 7.46687 9.33654 7.46657 9.56666V14.7657C7.12574 14.3981 6.73263 14.0827 6.29992 13.8296C6.15555 13.7463 5.97763 13.7463 5.83326 13.8296C4.45521 14.6303 3.52492 16.0234 3.31329 17.603C2.99077 17.5369 2.66253 17.5023 2.3333 17.4999C2.12733 17.5008 1.92165 17.5142 1.71731 17.54C1.55176 17.56 1.40949 17.6667 1.34398 17.82C0.393045 20.0507 1.13416 22.6424 3.12056 24.0331H0V24.9665H1.11159L1.91564 26.5751C1.99468 26.7332 2.15644 26.8332 2.3333 26.8331H20.0664C20.3241 26.8331 20.5331 26.6242 20.5331 26.3665V24.9665H23.5113L24.3154 26.5751C24.3944 26.7332 24.5562 26.8332 24.733 26.8331H26.5997C26.8574 26.8331 27.0663 26.6242 27.0663 26.3665V24.9665H27.533C27.7907 24.9665 27.9996 24.7575 27.9996 24.4998V22.6332C27.9996 22.3755 27.7907 22.1665 27.533 22.1665ZM27.0663 19.8332C27.0648 21.1212 26.021 22.165 24.733 22.1665H16.3331C15.0445 22.1665 13.9998 21.1218 13.9998 19.8332C13.9998 18.5446 15.0445 17.4999 16.3331 17.4999H22.3997C23.1729 17.4999 23.7997 18.1267 23.7997 18.8999C23.7997 19.6731 23.1729 20.2999 22.3997 20.2999H17.7331C17.4754 20.2999 17.2665 20.0909 17.2665 19.8332C17.2665 19.5755 17.4754 19.3665 17.7331 19.3665H20.9997V18.4332H17.7331C16.9599 18.4332 16.3331 19.06 16.3331 19.8332C16.3331 20.6064 16.9599 21.2332 17.7331 21.2332H22.3997C23.6877 21.2317 24.7315 20.1879 24.733 18.8999C24.7313 18.3933 24.563 17.9014 24.2542 17.4999H24.733C26.021 17.5014 27.0648 18.5452 27.0663 19.8332ZM23.333 11.9C24.1062 11.9 24.733 12.5268 24.733 13.2999C24.733 14.0731 24.1062 14.6999 23.333 14.6999H18.6664C18.4087 14.6999 18.1998 14.491 18.1998 14.2333C18.1998 13.9756 18.4087 13.7666 18.6664 13.7666H21.9331V12.8333H18.6664C17.8932 12.8333 17.2665 13.4601 17.2665 14.2333C17.2665 15.0065 17.8932 15.6333 18.6664 15.6333H23.333C24.621 15.6317 25.6648 14.5879 25.6663 13.2999C25.6659 12.8186 25.5151 12.3494 25.2352 11.9578C26.4919 12.243 27.2795 13.4929 26.9944 14.7496C26.7545 15.8072 25.8175 16.56 24.733 16.5666H22.3997H18.1998C16.9111 16.5666 15.8665 15.5219 15.8665 14.2333C15.8665 12.9446 16.9111 11.9 18.1998 11.9H23.333ZM12.5998 5.36672C12.5998 4.17346 13.4982 2.93261 13.9998 2.33342C14.502 2.93215 15.3998 4.17066 15.3998 5.36672C15.3974 5.95786 15.0239 6.48378 14.4665 6.68083V5.83338H13.5332V6.68083C12.9758 6.48378 12.6023 5.95786 12.5998 5.36672ZM6.06659 14.783C7.10917 15.4847 7.78425 16.6151 7.90757 17.8658C7.21154 18.1437 6.5847 18.5704 6.07079 19.1159C5.55315 18.5725 4.92333 18.1484 4.22515 17.8732C4.3463 16.6197 5.0218 15.4861 6.06659 14.783ZM8.40748 18.6706C8.85489 18.5135 9.32563 18.4332 9.79988 18.4332C9.87314 18.4332 9.94968 18.436 10.0295 18.4412C10.7983 20.6296 9.64745 23.0269 7.45899 23.7957C7.01158 23.9529 6.54078 24.0331 6.06659 24.0331C5.99333 24.0331 5.91679 24.0303 5.83699 24.0252C5.06817 21.8368 6.21901 19.4395 8.40748 18.6706ZM1.86664 19.8332C1.86606 19.3591 1.94621 18.8883 2.10371 18.4412C2.18351 18.436 2.26004 18.4332 2.3333 18.4332C3.54172 18.4296 4.69187 18.952 5.4842 19.8645C4.71893 21.0407 4.4772 22.4821 4.81687 23.8437C3.0617 23.2966 1.86629 21.6717 1.86664 19.8332ZM9.51148 25.8998H2.6217L2.15504 24.9665H9.97814L9.51148 25.8998ZM13.9998 25.8998H10.5549L11.0216 24.9665H12.1332V24.0331H9.00889C10.9975 22.6444 11.7405 20.0518 10.7892 17.8205C10.7237 17.6672 10.5814 17.5604 10.4159 17.5405C9.88487 17.4722 9.34622 17.4911 8.82129 17.5965C8.74849 17.0775 8.5963 16.5727 8.37003 16.0999H8.39989V9.96706L19.5998 8.24415V10.9666H18.1998C16.398 10.9643 14.9354 12.423 14.933 14.2248C14.9319 15.1192 15.298 15.975 15.9458 16.5918C14.1569 16.8028 12.8779 18.4241 13.089 20.213C13.1765 20.9552 13.5164 21.6449 14.0516 22.1665H13.5332C13.2755 22.1665 13.0665 22.3755 13.0665 22.6332V24.4998C13.0665 24.7575 13.2755 24.9665 13.5332 24.9665H13.9998V25.8998ZM16.0447 25.8998H14.9331V24.9665H16.5114L16.0447 25.8998ZM19.5998 25.8998H17.0882L17.5548 24.9665H19.5998V25.8998ZM26.133 25.8998H25.0214L24.5548 24.9665H26.133V25.8998ZM27.0663 24.0331H13.9998V23.0998H27.0663V24.0331Z" fill="#FD866E"/>
<path d="M10.2663 10.9667H9.33301V14.7H10.2663V10.9667Z" fill="#FD866E"/>
<path d="M10.2663 15.6333H9.33301V16.5666H10.2663V15.6333Z" fill="#FD866E"/>
</svg>
