<svg width="28" height="28" viewBox="0 0 28 28" fill="none" xmlns="http://www.w3.org/2000/svg">
<g clip-path="url(#clip0_23_1541)">
<path d="M14.9263 22.9597C16.5903 21.4313 17.6926 19.1434 17.6926 17.7097C17.6926 17.6246 17.6926 17.5274 17.6889 17.4252C18.7392 16.4616 19.4641 15.1956 19.7643 13.8025C20.2256 13.8548 20.6554 14.0621 20.9833 14.3905C21.115 14.5271 21.3104 14.5818 21.494 14.5338C21.6775 14.4856 21.8209 14.3423 21.8691 14.1587C21.9169 13.9752 21.8623 13.7802 21.7257 13.6481C21.3348 13.2656 21.1146 12.7421 21.1146 12.1951C21.1146 11.6482 21.3348 11.1244 21.7257 10.7419C21.8623 10.6098 21.9169 10.4148 21.8691 10.2313C21.8209 10.0477 21.6775 9.90457 21.494 9.85638C21.3104 9.80839 21.115 9.86294 20.9833 9.99952C20.7793 10.2036 20.5346 10.3631 20.2658 10.4679C20.2988 10.2585 20.3162 10.0467 20.3176 9.83485C20.3176 8.16981 20.0359 6.9703 18.6087 5.80073C18.5086 5.65533 18.2597 5.30567 17.8969 4.86249C18.4629 4.84567 19.0103 5.06511 19.4083 5.46768C19.54 5.60426 19.7354 5.65881 19.919 5.61103C20.1025 5.56284 20.2459 5.41949 20.2941 5.23594C20.3418 5.05239 20.2873 4.85736 20.1507 4.7255C19.7598 4.34282 19.5396 3.81905 19.5396 3.2723C19.5396 2.72515 19.7598 2.20159 20.1507 1.81911C20.2873 1.68725 20.3418 1.49201 20.2941 1.30846C20.2459 1.12492 20.1025 0.981568 19.919 0.933374C19.7354 0.885386 19.54 0.940347 19.4083 1.07672C19.0259 1.46761 18.5021 1.68786 17.9551 1.68786C17.4084 1.68786 16.8846 1.46761 16.5021 1.07672C16.3701 0.940347 16.175 0.885386 15.9915 0.933374C15.808 0.981568 15.6646 1.12492 15.6164 1.30846C15.5684 1.49201 15.6232 1.68725 15.7598 1.81911C16.1394 2.1942 16.3576 2.703 16.3676 3.23642C15.0736 2.05065 13.3388 0.90979 11.4352 0.90979H11.3875C8.04262 0.943423 7.0363 2.5371 6.76764 3.1671C6.26212 3.44847 5.78306 3.77393 5.33537 4.14C5.13275 4.019 4.87373 4.04997 4.70536 4.21567C4.32186 4.60737 3.79666 4.82824 3.24827 4.82824C2.69989 4.82824 2.17468 4.60737 1.79118 4.21567C1.5857 4.00998 1.25203 4.00998 1.04654 4.21567C0.841257 4.42116 0.841257 4.75441 1.04654 4.96011C1.43845 5.34361 1.65911 5.86881 1.65911 6.4172C1.65911 6.96537 1.43845 7.49079 1.04654 7.87429C0.841257 8.07978 0.841257 8.41324 1.04654 8.61893C1.25203 8.82421 1.5857 8.82421 1.79118 8.61893C2.05881 8.35151 2.39494 8.16283 2.76224 8.0728C2.55613 8.63677 2.45626 9.23417 2.46774 9.83485C2.49174 10.5684 2.65211 11.2913 2.94045 11.9669C2.63529 12.844 1.97637 15.7467 5.20145 18.5653C5.65324 20.2521 6.57487 21.776 7.85887 22.9597C7.95751 24.4359 7.85887 25.7552 7.34638 26.267C7.14765 26.4731 7.15032 26.8004 7.35294 27.0031C7.55535 27.2055 7.88307 27.2084 8.08876 27.0094C8.73784 26.3606 8.94353 25.1194 8.93882 23.7858C9.67136 24.2589 10.521 24.5179 11.3926 24.5347C12.2648 24.5169 13.1144 24.2562 13.8466 23.7823C13.8419 25.1163 14.0476 26.3546 14.6964 27.0057C14.9025 27.2047 15.2298 27.202 15.4325 26.9994C15.6349 26.797 15.6377 26.4692 15.4388 26.2633C14.9292 25.7535 14.8277 24.4344 14.9263 22.9597ZM6.17968 18.1196C6.41265 17.1057 7.61647 12.6643 11.052 11.3766C11.077 11.3649 11.1012 11.3512 11.1239 11.3356L11.158 11.3547C14.1142 12.8325 16.377 15.6349 16.618 16.9648C16.6344 17.236 16.642 17.4898 16.642 17.7097C16.642 19.5618 14.1583 23.4847 11.3922 23.4847C8.81659 23.4847 6.4873 20.0833 6.17968 18.1196ZM3.92196 12.3311C4.59072 12.0265 6.7012 10.9429 7.66363 9.01925C7.79324 8.75982 7.68783 8.44441 7.42841 8.3148C7.16919 8.18519 6.85357 8.2906 6.72416 8.55002C6.02895 9.94005 4.53351 10.8453 3.77922 11.2316C3.62808 10.7805 3.5399 10.3102 3.51775 9.83485C3.48924 9.23971 3.61865 8.64805 3.89325 8.11956C4.19902 8.22005 4.47711 8.39047 4.70577 8.61708C4.91147 8.82278 5.24472 8.82278 5.45021 8.61708C5.65591 8.41159 5.65591 8.07834 5.45021 7.87265C5.0179 7.44464 4.79949 6.8454 4.85507 6.23939C5.38233 5.44225 6.08637 4.77759 6.91243 4.29688C7.37406 5.37211 8.1509 6.28185 9.1398 6.90672C8.87114 7.59476 8.82971 8.3511 9.02146 9.06436C9.21157 9.68965 9.58338 10.2442 10.0897 10.6574C7.08941 12.1346 5.7849 15.5777 5.31999 17.2314C3.17137 14.9797 3.70581 12.9143 3.92093 12.3311H3.92196ZM2.66195 5.82677C3.05099 5.90347 3.45069 5.90347 3.83972 5.82677C3.76302 6.2156 3.76302 6.61551 3.83972 7.00434C3.45069 6.92805 3.05099 6.92805 2.66195 7.00434C2.73783 6.61551 2.73742 6.2154 2.6599 5.82677H2.66195ZM18.5441 3.85904C18.1565 3.78295 17.7581 3.78295 17.3705 3.85904C17.4465 3.47144 17.4465 3.07276 17.3705 2.68516C17.7581 2.76145 18.1565 2.76145 18.5441 2.68516C18.4676 3.07256 18.4668 3.47144 18.5421 3.85904H18.5441ZM11.4352 1.9598C13.193 1.9598 14.8535 3.20278 16.0368 4.38199C15.9564 4.50565 15.8635 4.6207 15.7598 4.7255C15.6232 4.85736 15.5684 5.05239 15.6164 5.23594C15.6646 5.41949 15.808 5.56284 15.9915 5.61103C16.175 5.65881 16.3701 5.60426 16.5021 5.46768C16.5973 5.37334 16.7011 5.28824 16.8122 5.21318C17.1568 5.60795 17.4802 6.02078 17.7802 6.45001C17.8103 6.49533 17.8473 6.53573 17.8895 6.56957C19.0546 7.50145 19.2676 8.40052 19.2676 9.83485C19.2646 10.0848 19.2344 10.334 19.1784 10.5781C18.7601 10.504 18.3749 10.3022 18.0759 10.0005C17.9441 9.86397 17.749 9.80942 17.5655 9.8574C17.3819 9.9056 17.2384 10.0487 17.1904 10.2323C17.1424 10.4158 17.1972 10.6113 17.3337 10.7429C17.7244 11.1254 17.9449 11.6492 17.9449 12.1961C17.9449 12.7431 17.7244 13.2666 17.3337 13.6491C17.1346 13.8552 17.1377 14.1825 17.3401 14.3851C17.5423 14.5876 17.87 14.5904 18.0759 14.3915C18.2379 14.2332 18.4248 14.1019 18.6288 14.0031C18.3938 14.7871 17.9972 15.5131 17.465 16.1347C16.7162 14.2242 14.2315 11.7148 11.6274 10.4119C10.8901 10.1152 10.3116 9.52251 10.0325 8.77828C9.90269 8.28773 9.93202 7.76888 10.1156 7.29596C11.3229 7.61814 14.9542 8.80084 16.1601 11.6137C16.2325 11.7888 16.3932 11.9117 16.5811 11.9351C16.769 11.9582 16.9548 11.8787 17.0675 11.7263C17.1801 11.5743 17.2023 11.3731 17.125 11.2003C15.5545 7.53406 10.7339 6.34562 10.0079 6.18587C8.95071 5.61841 8.14393 4.67607 7.74608 3.54424C7.91547 3.17674 8.67324 1.98441 11.3979 1.95693L11.4352 1.9598ZM20.1171 11.6102C20.041 11.9978 20.041 12.3965 20.1171 12.7841C19.7295 12.7078 19.3308 12.7078 18.9432 12.7841C19.0195 12.3965 19.0195 11.9978 18.9432 11.6102C19.3308 11.6863 19.7295 11.6863 20.1171 11.6102Z" fill="#FD866E"/>
<path d="M25.5672 21.9098H25.2524C25.7301 19.7972 23.9245 17.9501 23.838 17.8635C23.6692 17.6943 23.4075 17.6607 23.2012 17.7815C22.9951 17.9023 22.8965 18.147 22.9613 18.3771C23.062 18.7464 23.0189 19.1404 22.8405 19.4796C22.593 19.7308 22.2425 19.8528 21.8924 19.8097C21.2292 19.7597 20.5822 20.0302 20.1515 20.5372C19.8617 20.9346 19.7151 21.4182 19.7352 21.9098H19.2674C18.3977 21.9098 17.6924 22.6146 17.6924 23.4848V25.5846C17.6924 26.4545 18.3977 27.1596 19.2674 27.1596H25.5672C26.4374 27.1596 27.1422 26.4545 27.1422 25.5846V23.4848C27.1422 22.6146 26.4374 21.9098 25.5672 21.9098ZM20.979 21.1836C21.2173 20.9408 21.5542 20.8212 21.8924 20.8597C22.5735 20.9151 23.2392 20.6362 23.6774 20.112C23.765 19.9962 23.838 19.8702 23.8954 19.7367C24.2773 20.394 24.3761 21.178 24.169 21.9098H20.7846C20.768 21.6528 20.8363 21.3975 20.979 21.1836ZM26.0922 25.5846C26.0922 25.8746 25.8572 26.1096 25.5672 26.1096H19.2674C18.9774 26.1096 18.7424 25.8746 18.7424 25.5846V23.4848C18.7424 23.1948 18.9774 22.9598 19.2674 22.9598H25.5672C25.8572 22.9598 26.0922 23.1948 26.0922 23.4848V25.5846Z" fill="#FD866E"/>
<path d="M24.5173 24.0098H20.3175C20.0275 24.0098 19.7925 24.2448 19.7925 24.5348C19.7925 24.8245 20.0275 25.0598 20.3175 25.0598H24.5173C24.8073 25.0598 25.0423 24.8245 25.0423 24.5348C25.0423 24.2448 24.8073 24.0098 24.5173 24.0098Z" fill="#FD866E"/>
</g>
<defs>
<clipPath id="clip0_23_1541">
<rect width="28" height="28" fill="white"/>
</clipPath>
</defs>
</svg>
