<svg width="28" height="28" viewBox="0 0 28 28" fill="none" xmlns="http://www.w3.org/2000/svg">
<g clip-path="url(#clip0_23_1530)">
<path d="M27.0908 22.9018C26.8266 22.7555 26.4939 22.8509 26.3474 23.1151C25.5563 24.5428 24.0522 25.4297 22.4219 25.4297H18.0513C18.3571 25.2193 18.6456 24.9805 18.912 24.7142C20.3113 23.3148 20.9579 21.3106 20.6418 19.3527C20.6042 19.12 20.4218 18.9375 20.1891 18.9C18.8083 18.677 17.4046 18.9336 16.2059 19.5948C15.8455 18.3554 15.1071 17.2667 14.0737 16.4609H22.4219C24.0905 16.4609 25.6112 17.3785 26.3907 18.8556C26.4887 19.0413 26.6785 19.1474 26.8749 19.1474C26.9609 19.1474 27.0482 19.127 27.1296 19.084C27.3967 18.9431 27.499 18.6123 27.358 18.3451C26.621 16.9485 25.3507 15.9548 23.872 15.5584C24.788 14.8158 25.375 13.6824 25.375 12.4141C25.375 10.1826 23.5596 8.36719 21.3281 8.36719H20.3307C20.8151 7.81009 21.1094 7.08351 21.1094 6.28906C21.1094 4.5401 19.6865 3.11719 17.9375 3.11719H15.1672C13.4183 3.11719 11.9954 4.5401 11.9954 6.28906C11.9954 7.08351 12.2896 7.81009 12.774 8.36719H11.9524C10.9238 8.36719 9.95148 8.75219 9.20861 9.43912L7.9841 7.89928C7.88041 7.76891 7.72308 7.69295 7.55655 7.69278C7.55639 7.69278 7.55623 7.69278 7.55606 7.69278C7.38976 7.69278 7.23242 7.76847 7.12868 7.89852L5.35423 10.1298C4.53923 11.1547 4.54694 12.5876 5.32919 13.5991H4.33273C4.24506 13.5991 4.15866 13.6202 4.08089 13.6606C1.56368 14.9664 0 17.5378 0 20.3711C0 21.5791 0.276719 22.7335 0.822445 23.8024C1.34269 24.8213 2.10224 25.7243 3.01908 26.4136C3.1138 26.4849 3.22919 26.5234 3.34775 26.5234H22.4219C24.4496 26.5234 26.3204 25.4206 27.3041 23.6452C27.4505 23.381 27.355 23.0482 27.0908 22.9018ZM11.5307 21.4032C12.5863 22.4587 13.1214 23.9329 13.0028 25.4128C11.5234 25.5311 10.0487 24.9963 8.9932 23.9407C7.93767 22.8851 7.4025 21.4109 7.52106 19.931C9.00058 19.8125 10.4751 20.3476 11.5307 21.4032ZM19.6107 19.931C19.7292 21.411 19.1941 22.8852 18.1385 23.9407C17.083 24.9962 15.6095 25.5316 14.1289 25.4128C14.0104 23.9328 14.5455 22.4587 15.601 21.4032C16.6566 20.3476 18.1303 19.8127 19.6107 19.931ZM15.2434 20.2507C15.0998 20.3702 14.9609 20.4965 14.8276 20.6298C14.2932 21.1642 13.869 21.787 13.5659 22.4616C13.2628 21.787 12.8385 21.1642 12.3041 20.6298C12.1704 20.4961 12.0311 20.3694 11.8869 20.2496C12.1235 19.1552 12.7089 18.1818 13.5652 17.4563C14.4222 18.1823 15.0071 19.1558 15.2434 20.2507ZM13.0891 6.28906C13.0891 5.1432 14.0214 4.21094 15.1672 4.21094H17.9375C19.0834 4.21094 20.0156 5.1432 20.0156 6.28906C20.0156 7.43493 19.0834 8.36719 17.9375 8.36719H15.1672C14.0214 8.36719 13.0891 7.43493 13.0891 6.28906ZM21.3281 9.46094C22.9564 9.46094 24.2812 10.7857 24.2812 12.4141C24.2812 14.0424 22.9564 15.3672 21.3281 15.3672H13.2169C12.6016 14.6713 11.8618 14.0914 11.0311 13.6604C10.9533 13.6201 10.8669 13.599 10.7793 13.599H9.78294C10.5216 12.6438 10.569 11.3131 9.88559 10.3048C10.4354 9.76495 11.1717 9.46094 11.9524 9.46094H21.3281ZM6.21026 10.8105L7.55601 9.11821L8.9017 10.8105C9.44617 11.4951 9.39034 12.4778 8.77171 13.0964C8.5773 13.2908 8.34745 13.4285 8.10288 13.5101V11.8043C8.10288 11.5023 7.85799 11.2574 7.55601 11.2574C7.25402 11.2574 7.00913 11.5023 7.00913 11.8043V13.5101C6.76452 13.4284 6.53461 13.2908 6.34025 13.0964C5.72162 12.4779 5.66579 11.4951 6.21026 10.8105ZM1.09375 20.3711C1.09375 17.9914 2.3835 15.8278 4.46895 14.6927H10.643C11.5136 15.167 12.2627 15.8344 12.8344 16.6424C11.9179 17.4266 11.2592 18.4459 10.9249 19.5943C9.72655 18.9334 8.32322 18.677 6.94269 18.9C6.70999 18.9376 6.52755 19.12 6.48998 19.3526C6.17378 21.3105 6.82041 23.3148 8.21975 24.7142C8.48613 24.9805 8.77466 25.2193 9.08037 25.4297H3.5344C1.98084 24.1952 1.09375 22.3617 1.09375 20.3711Z" fill="#FD866E"/>
<path d="M4.48046 6.01169C4.2669 6.22524 4.2669 6.57152 4.48046 6.78513C4.58726 6.89188 4.72715 6.94531 4.86715 6.94531C5.00715 6.94531 5.14704 6.89188 5.25385 6.78513C6.07017 5.96876 6.07017 4.64056 5.25385 3.82419C4.86398 3.43432 4.86398 2.79995 5.25385 2.41013C5.4674 2.19658 5.4674 1.8503 5.25385 1.63669C5.04024 1.42319 4.69407 1.42319 4.4804 1.63669C3.66408 2.45306 3.66408 3.78126 4.4804 4.59763C4.87033 4.9875 4.87033 5.62188 4.48046 6.01169Z" fill="#FD866E"/>
<path d="M1.56294 8.19924C1.34938 8.4128 1.34938 8.75908 1.56294 8.97269C1.66974 9.07944 1.80969 9.13287 1.94963 9.13287C2.08958 9.13287 2.22952 9.07944 2.33633 8.97269C3.15265 8.15631 3.15265 6.82812 2.33633 6.0118C1.94646 5.62188 1.94646 4.98755 2.33633 4.59763C2.54988 4.38408 2.54988 4.03785 2.33627 3.82424C2.12277 3.61063 1.77644 3.61069 1.56288 3.8243C0.746617 4.64062 0.746617 5.96881 1.56288 6.78519C1.9528 7.17505 1.9528 7.80943 1.56294 8.19924Z" fill="#FD866E"/>
<path d="M27.8397 20.6134C27.738 20.5116 27.597 20.4531 27.4531 20.4531C27.3093 20.4531 27.1682 20.5116 27.0665 20.6134C26.9648 20.7151 26.9062 20.8562 26.9062 21.0001C26.9062 21.1439 26.9647 21.285 27.0665 21.3866C27.1682 21.4884 27.3093 21.5469 27.4531 21.5469C27.597 21.5469 27.738 21.4884 27.8397 21.3866C27.9415 21.285 28 21.1439 28 21.0001C28 20.8562 27.9415 20.7151 27.8397 20.6134Z" fill="#FD866E"/>
</g>
<defs>
<clipPath id="clip0_23_1530">
<rect width="28" height="28" fill="white"/>
</clipPath>
</defs>
</svg>
